<svg width="64" height="32" viewBox="0 0 64 32" fill="none" xmlns="http://www.w3.org/2000/svg">
<rect width="64" height="32" rx="16" fill="#F05193"/>
<path d="M32 12.25C32 11.4544 32.3161 10.6913 32.8787 10.1287C33.4413 9.56607 34.2044 9.25 35 9.25H41C41.1989 9.25 41.3897 9.32902 41.5303 9.46967C41.671 9.61032 41.75 9.80109 41.75 10V22C41.75 22.1989 41.671 22.3897 41.5303 22.5303C41.3897 22.671 41.1989 22.75 41 22.75H35C34.2044 22.75 33.4413 23.0661 32.8787 23.6287C32.3161 24.1913 32 24.9544 32 25.75" stroke="white" stroke-linecap="round" stroke-linejoin="round"/>
<path d="M22.25 22C22.25 22.1989 22.329 22.3897 22.4697 22.5303C22.6103 22.671 22.8011 22.75 23 22.75H29C29.7956 22.75 30.5587 23.0661 31.1213 23.6287C31.6839 24.1913 32 24.9544 32 25.75V12.25C32 11.4544 31.6839 10.6913 31.1213 10.1287C30.5587 9.56607 29.7956 9.25 29 9.25H23C22.8011 9.25 22.6103 9.32902 22.4697 9.46967C22.329 9.61032 22.25 9.80109 22.25 10V22Z" stroke="white" stroke-linecap="round" stroke-linejoin="round"/>
</svg>
