<svg width="18" height="18" viewBox="0 0 18 18" fill="none" xmlns="http://www.w3.org/2000/svg">
<path fill-rule="evenodd" clip-rule="evenodd" d="M0.818182 0H17.1818C17.6337 0 18 0.366312 18 0.818182V17.1818C18 17.6337 17.6337 18 17.1818 18H0.818182C0.366312 18 0 17.6337 0 17.1818V0.818182C0 0.366312 0.366312 0 0.818182 0ZM13.8452 6.90713C14.045 6.71646 14.0523 6.39997 13.8617 6.20022C13.671 6.00047 13.3545 5.99311 13.1548 6.18378L7.49997 11.5815L4.84524 9.04741C4.64549 8.85674 4.32899 8.8641 4.13832 9.06385C3.94765 9.2636 3.95501 9.5801 4.15476 9.77077L7.15473 12.6344C7.34794 12.8188 7.65199 12.8188 7.8452 12.6344L13.8452 6.90713Z" fill="#F05193"/>
</svg>
