<svg width="24" height="24" viewBox="0 0 24 24" fill="none" xmlns="http://www.w3.org/2000/svg">
<path d="M8.25 6H20.25" stroke="black" stroke-linecap="round" stroke-linejoin="round"/>
<path d="M8.25055 12H20.25" stroke="black" stroke-linecap="round" stroke-linejoin="round"/>
<path d="M8.25055 18H20.25" stroke="black" stroke-linecap="round" stroke-linejoin="round"/>
<path d="M4.125 12.75C4.53921 12.75 4.875 12.4142 4.875 12C4.875 11.5858 4.53921 11.25 4.125 11.25C3.71079 11.25 3.375 11.5858 3.375 12C3.375 12.4142 3.71079 12.75 4.125 12.75Z" fill="black"/>
<path d="M4.125 6.75C4.53921 6.75 4.875 6.41421 4.875 6C4.875 5.58579 4.53921 5.25 4.125 5.25C3.71079 5.25 3.375 5.58579 3.375 6C3.375 6.41421 3.71079 6.75 4.125 6.75Z" fill="black"/>
<path d="M4.125 18.75C4.53921 18.75 4.875 18.4142 4.875 18C4.875 17.5858 4.53921 17.25 4.125 17.25C3.71079 17.25 3.375 17.5858 3.375 18C3.375 18.4142 3.71079 18.75 4.125 18.75Z" fill="black"/>
</svg>
